<?xml version="1.0" standalone="no"?>
<!DOCTYPE svg PUBLIC "-//W3C//DTD SVG 20010904//EN"
 "http://www.w3.org/TR/2001/REC-SVG-20010904/DTD/svg10.dtd">
<svg version="1.0" xmlns="http://www.w3.org/2000/svg"
 width="256.000000pt" height="256.000000pt" viewBox="0 0 256.000000 256.000000"
 preserveAspectRatio="xMidYMid meet">
<metadata>
Created by potrace 1.16, written by Peter Selinger 2001-2019
</metadata>
<g transform="translate(0.000000,256.000000) scale(0.100000,-0.100000)"
fill="#FF0000" stroke="none">
<path d="M1210 2163 c0 -16 -79 -21 -420 -28 -162 -2 -382 -8 -487 -12 -185
-6 -193 -5 -193 13 -1 17 -2 17 -13 3 -16 -20 -47 -33 -74 -30 -22 2 -23 -1
-23 -57 0 -59 0 -60 31 -66 17 -3 42 -6 55 -6 13 0 24 -5 24 -11 0 -5 4 -8 9
-5 5 3 12 -1 15 -10 5 -14 9 -14 22 -3 8 7 13 21 11 31 -3 11 0 18 9 18 8 0
14 9 13 23 -1 16 -2 18 -6 5 -2 -10 -9 -18 -14 -18 -5 0 -9 8 -9 18 0 13 -2
14 -9 3 -7 -11 -9 -11 -14 0 -4 10 -6 9 -6 -3 -2 -36 -21 -17 -21 20 0 49 10
59 28 30 13 -23 13 -23 7 5 -3 15 -3 27 1 27 12 0 34 -29 35 -47 0 -15 2 -14
9 5 11 27 54 30 69 5 9 -16 10 -15 11 5 0 13 4 20 10 17 5 -3 10 -16 10 -29 0
-12 6 -23 13 -23 7 0 12 12 12 25 0 20 6 26 25 27 14 2 31 -2 38 -7 7 -7 12
-7 12 -1 0 5 24 11 52 12 42 1 50 -1 40 -11 -6 -6 -12 -25 -12 -40 0 -15 -4
-28 -10 -28 -5 0 -10 11 -10 24 0 37 -19 42 -26 7 -7 -31 -28 -42 -37 -18 -3
8 -10 6 -21 -8 -8 -11 -16 -15 -16 -7 0 6 -5 12 -11 12 -5 0 -7 -4 -4 -10 3
-5 1 -10 -5 -10 -6 0 -8 -4 -5 -10 3 -5 47 -10 97 -10 88 0 90 1 75 18 -10 10
-17 23 -17 28 0 5 4 3 9 -5 5 -8 26 -15 48 -15 l38 -1 -4 43 c-2 26 1 42 8 42
6 0 11 -5 11 -12 0 -9 3 -9 12 0 18 18 33 15 18 -3 -10 -12 -10 -19 -2 -27 21
-21 13 -32 -8 -13 -20 18 -20 17 -20 -8 0 -17 5 -27 15 -27 8 0 15 -4 15 -10
0 -11 77 -13 197 -4 63 5 80 10 76 20 -3 8 -12 14 -20 14 -12 0 -14 8 -8 38 8
41 15 53 22 35 3 -7 13 -23 23 -35 l19 -23 1 33 c0 35 13 42 29 15 10 -17 10
-17 11 0 0 9 5 17 10 17 6 0 10 -7 10 -15 0 -9 12 -20 26 -25 35 -14 37 -13
30 14 -8 30 3 40 24 21 16 -14 18 -14 23 0 9 21 24 19 32 -5 8 -26 25 -26 25
0 0 18 6 20 70 17 51 -2 70 1 70 10 0 7 -3 13 -7 14 -34 3 -58 11 -65 22 -6 9
-8 9 -8 0z m-540 -105 c0 -16 -4 -28 -10 -28 -5 0 -10 19 -10 43 0 31 3 38 10
27 5 -8 10 -27 10 -42z m48 -12 c12 0 22 -3 22 -8 0 -4 -13 -8 -30 -8 -29 0
-30 2 -29 43 l2 42 6 -35 c5 -28 10 -35 29 -34z m52 16 c0 -28 -3 -33 -10 -22
-13 20 -13 73 0 65 6 -3 10 -23 10 -43z m30 33 c0 -8 5 -15 10 -15 6 0 10 7
10 15 0 8 5 15 10 15 13 0 13 -77 0 -85 -6 -3 -7 1 -4 9 4 11 0 16 -10 16 -9
0 -16 -6 -16 -12 0 -9 -4 -8 -10 2 -13 20 -13 70 0 70 6 0 10 -7 10 -15z"/>
<path d="M1300 2110 c0 -41 -26 -84 -43 -74 -7 4 -9 3 -5 -1 11 -12 57 -15 63
-4 4 5 11 9 16 9 6 0 7 -4 4 -10 -3 -5 1 -10 9 -10 8 0 22 12 30 28 8 15 15
22 16 16 0 -7 6 -14 14 -17 8 -3 13 1 12 11 -1 11 5 16 18 14 14 -3 17 1 13
12 -5 12 0 16 15 16 12 0 18 3 14 7 -6 6 -62 12 -141 13 -11 1 -23 6 -27 13
-4 7 -8 -3 -8 -23z"/>
<path d="M1418 2133 c7 -3 16 -2 19 1 4 3 -2 6 -13 5 -11 0 -14 -3 -6 -6z"/>
<path d="M1250 2086 c0 -8 4 -17 9 -20 5 -4 7 3 4 14 -6 23 -13 26 -13 6z"/>
<path d="M1480 2081 c0 -6 5 -13 10 -16 6 -3 10 1 10 9 0 9 -4 16 -10 16 -5 0
-10 -4 -10 -9z"/>
<path d="M222 2050 c0 -14 2 -19 5 -12 2 6 2 18 0 25 -3 6 -5 1 -5 -13z"/>
<path d="M1001 2051 c0 -8 -8 -11 -20 -8 -11 3 -22 -1 -25 -9 -3 -8 0 -11 9
-8 7 3 22 1 32 -3 10 -5 32 -7 48 -3 29 6 30 6 6 14 -16 5 -26 4 -31 -5 -6 -8
-10 -5 -13 12 -2 13 -5 18 -6 10z"/>
<path d="M257 2036 c-10 -25 0 -36 31 -35 23 0 24 2 8 8 -11 4 -22 16 -26 26
-6 17 -7 18 -13 1z"/>
<path d="M897 2025 c10 -13 27 -24 38 -24 l20 0 -20 9 c-11 5 -16 9 -11 9 11
1 -25 30 -37 31 -4 0 0 -11 10 -25z"/>
<path d="M1208 2039 c-22 -12 -24 -33 -3 -25 9 3 19 -3 25 -14 6 -11 20 -20
30 -20 26 0 26 16 0 23 -12 3 -20 14 -20 26 0 23 -7 25 -32 10z"/>
<path d="M1092 2029 c3 -8 8 -13 11 -11 9 3 7 11 -5 18 -6 4 -8 0 -6 -7z"/>
<path d="M1170 2025 c0 -8 2 -15 4 -15 2 0 6 7 10 15 3 8 1 15 -4 15 -6 0 -10
-7 -10 -15z"/>
<path d="M1069 1936 c-3 -3 -84 -6 -180 -7 -96 -1 -183 -6 -194 -10 -19 -7
-19 -8 -1 -8 13 -1 16 -6 11 -18 -4 -10 -7 -28 -6 -40 0 -15 -5 -23 -15 -23
-8 0 -14 6 -13 13 4 30 -2 47 -16 47 -8 0 -14 6 -13 13 4 17 -53 22 -63 5 -7
-11 -9 -11 -9 0 0 11 -39 13 -202 11 -112 -1 -240 -4 -285 -7 l-82 -5 0 -79
c1 -72 2 -78 19 -73 10 3 21 1 25 -5 4 -6 15 -8 26 -5 11 4 19 2 19 -4 0 -6
12 -11 28 -11 19 0 23 -3 13 -9 -21 -13 -5 -29 24 -23 29 5 34 28 8 35 -14 4
-13 5 4 6 12 0 24 7 26 14 4 8 6 8 6 -2 1 -11 5 -10 17 5 11 13 17 15 20 7 8
-18 25 -16 18 2 -4 8 -1 15 5 15 6 0 11 -6 11 -12 0 -9 19 -13 62 -13 59 1 63
2 60 22 -2 17 2 21 17 20 24 -1 24 -2 11 -28 -9 -17 -7 -19 17 -18 15 0 22 3
16 6 -7 2 -13 13 -13 24 0 14 7 19 25 19 18 0 25 -5 25 -19 0 -11 -6 -22 -12
-24 -7 -3 -3 -6 8 -6 17 -1 21 4 18 27 -2 15 -1 19 2 10 7 -23 24 -23 24 -1 0
14 2 15 13 4 10 -10 8 -15 -8 -28 -19 -14 -18 -15 17 -11 21 2 40 -1 43 -7 3
-5 3 -3 1 5 -2 8 1 23 6 33 7 14 12 16 24 7 15 -13 9 -34 -7 -25 -5 4 -9 2 -9
-4 0 -5 5 -13 10 -16 6 -3 10 -1 10 5 0 6 5 8 10 5 6 -4 10 7 10 25 0 25 4 31
18 28 23 -4 29 -48 6 -48 -22 0 -15 -7 11 -12 17 -3 19 2 16 32 -2 29 -1 32
12 22 12 -10 16 -10 21 0 3 7 4 3 2 -9 -2 -12 1 -24 8 -27 6 -2 3 -5 -6 -5
-10 -1 -18 -6 -18 -11 0 -6 8 -10 18 -8 18 3 42 22 42 33 0 3 6 12 12 19 11
11 16 11 34 -1 19 -12 22 -12 27 2 8 18 37 20 37 3 0 -9 3 -9 8 -3 4 6 18 12
31 12 20 2 23 -1 18 -26 -8 -37 16 -37 48 0 23 29 33 27 49 -11 3 -8 5 0 3 18
-3 24 0 32 13 32 13 0 16 -7 12 -30 -5 -33 -9 -31 88 -34 25 0 45 -5 44 -11
-2 -38 -19 -85 -33 -89 -9 -3 -92 -12 -186 -21 -93 -8 -186 -17 -205 -20 -19
-3 -116 -12 -215 -20 -322 -28 -490 -44 -510 -49 -11 -2 -28 -5 -37 -5 -16 -1
-18 -12 -18 -87 l0 -86 47 3 c71 3 107 -9 145 -49 22 -24 27 -33 14 -28 -11 4
-23 1 -30 -8 -8 -11 -22 -14 -52 -9 -38 5 -43 9 -53 44 -14 47 -35 42 -29 -7
3 -30 1 -34 -18 -34 l-23 0 0 -259 -1 -260 21 4 c26 5 35 13 25 22 -4 4 -11 1
-16 -7 -13 -21 -12 -6 2 25 12 27 26 32 34 12 8 -22 42 -18 47 6 4 21 4 21 6
-1 1 -15 5 -21 13 -16 7 5 9 2 5 -9 -4 -11 -2 -14 9 -10 7 3 14 8 14 12 0 4
16 7 35 6 19 0 35 3 35 8 0 5 7 6 16 3 13 -5 15 -1 12 19 -3 14 -1 25 4 25 5
0 8 -17 6 -37 l-3 -38 171 1 c112 1 179 6 194 14 13 7 18 15 13 19 -6 3 -13
13 -16 21 -4 12 -6 11 -6 -2 -1 -12 -9 -18 -23 -17 -17 0 -19 2 -8 7 21 10 27
47 6 39 -9 -4 -16 -2 -16 2 0 15 33 22 42 9 6 -10 8 -10 8 0 0 6 6 12 14 12
12 0 15 -13 17 -70 1 -12 21 -15 112 -17 62 -1 148 2 192 8 162 20 443 29 448
15 2 -5 13 -10 26 -11 14 -1 20 3 17 11 -3 9 27 14 120 19 140 8 130 -2 114
110 -17 117 -4 108 -144 101 -166 -9 -494 -27 -534 -29 -26 -2 -32 -6 -28 -20
2 -9 0 -17 -5 -17 -5 0 -9 -5 -9 -11 0 -5 5 -7 12 -3 7 5 8 3 3 -6 -4 -7 -2
-16 6 -21 11 -6 8 -9 -8 -9 -20 0 -21 4 -18 43 l3 42 -116 -7 c-65 -4 -157
-11 -207 -14 -49 -3 -106 -6 -125 -5 -19 1 -67 -1 -107 -5 -54 -4 -70 -9 -67
-19 3 -7 1 -16 -5 -19 -6 -4 -8 -13 -5 -21 3 -7 -4 -18 -15 -25 -19 -10 -21
-8 -22 22 l-1 33 -7 -29 c-3 -16 -12 -31 -18 -34 -17 -5 -27 22 -19 52 5 19
11 23 28 18 14 -3 19 -2 14 6 -5 9 -44 11 -134 7 l-127 -5 1 33 c1 17 7 45 13
61 6 16 10 34 7 40 -3 6 -8 1 -11 -11 -17 -54 -30 -6 -15 54 1 6 40 -11 40
-19 0 -5 4 -6 10 -3 5 3 10 1 10 -5 0 -6 8 -10 18 -8 12 2 16 -3 15 -19 -2
-15 3 -23 12 -23 8 0 15 -7 15 -15 0 -8 8 -19 19 -24 14 -8 23 -5 40 10 l21
20 0 -36 c0 -45 17 -45 26 0 3 19 10 37 14 40 9 6 99 13 265 20 83 4 132 10
137 18 6 9 12 9 27 0 14 -9 62 -11 180 -6 113 4 161 3 161 -5 0 -6 -4 -14 -10
-17 -5 -3 -10 -16 -9 -28 0 -17 5 -12 20 19 l18 41 157 6 c153 6 157 6 175
-16 l19 -22 6 21 c5 19 16 23 72 28 37 4 91 9 121 13 l53 6 -6 41 c-3 22 -9
61 -12 86 l-6 45 83 -4 c48 -2 87 -8 91 -15 4 -6 8 -40 8 -76 1 -36 6 -85 11
-110 30 -130 20 -177 -55 -255 -28 -30 -60 -71 -71 -92 -11 -21 -29 -54 -41
-74 -23 -37 -44 -151 -44 -236 0 -43 -1 -45 -17 -31 -10 9 -28 19 -40 22 -14
5 -23 16 -24 29 -1 16 -3 17 -6 5 -2 -9 3 -30 11 -47 10 -19 12 -32 6 -36 -6
-3 -10 -18 -10 -32 0 -21 4 -24 21 -20 27 7 49 -1 49 -19 0 -8 11 -19 24 -23
23 -9 36 -44 36 -98 0 -20 -4 -23 -20 -18 -31 10 -22 -25 10 -38 8 -4 -7 -4
-35 -2 -56 5 -74 21 -77 69 0 17 -1 38 -2 46 -1 10 -11 15 -31 15 -29 0 -30
-2 -31 -47 -1 -30 2 -48 10 -48 6 0 3 -5 -6 -11 -17 -9 -17 -12 -2 -34 11 -17
26 -25 45 -25 15 0 30 -4 33 -9 4 -5 31 -17 61 -27 46 -14 60 -15 79 -5 12 7
45 13 73 14 27 1 57 8 66 15 23 20 31 63 14 80 -13 12 -16 12 -22 -7 -11 -35
-27 -24 -21 14 3 19 -1 60 -9 92 -12 50 -14 167 -4 253 1 8 -1 22 -5 31 -5 12
2 22 23 35 16 11 53 42 83 69 84 79 82 78 110 55 36 -28 146 -295 134 -325 -2
-7 4 -26 15 -44 16 -26 16 -31 3 -31 -11 0 -14 -6 -9 -22 4 -13 8 -27 9 -33 1
-13 37 -34 59 -35 20 0 22 -11 6 -27 -9 -9 -9 -20 0 -44 6 -17 11 -44 11 -58
0 -14 9 -37 20 -51 11 -14 20 -33 20 -42 0 -13 8 -18 30 -18 17 0 30 4 30 9 0
10 39 27 53 23 4 -1 7 5 7 13 0 8 -8 15 -17 15 -14 0 -15 2 -4 9 8 5 11 16 7
29 -4 11 -2 23 4 27 18 11 11 74 -15 125 -27 53 -33 105 -12 113 7 3 5 6 -6 6
-9 1 -16 4 -15 9 3 13 -14 77 -28 97 -10 15 -10 31 -2 68 8 40 7 57 -6 92 -25
63 -23 287 2 317 34 42 75 143 75 187 0 70 -48 223 -88 285 -20 30 -97 70
-158 81 -48 9 -52 24 -31 120 l7 30 -21 -25 c-22 -25 -22 -25 0 16 20 37 21
45 9 70 -10 23 -14 25 -22 13 -8 -11 -9 -8 -7 11 3 25 3 25 -78 25 -65 0 -86
-4 -102 -18 -33 -30 -45 -136 -19 -165 9 -10 23 -34 31 -53 15 -36 15 -36 -8
-32 -13 3 -45 -5 -72 -18 -53 -24 -115 -30 -154 -15 -28 11 -60 40 -60 54 0
13 65 30 93 25 14 -3 28 0 31 6 4 5 13 8 21 5 10 -4 12 1 8 18 -18 78 -25 98
-33 93 -6 -4 -10 -1 -10 4 0 6 -6 11 -13 11 -9 0 -14 -16 -16 -50 -2 -39 1
-50 14 -50 8 0 15 -5 15 -10 0 -6 -8 -10 -17 -8 -19 3 -43 64 -43 109 0 25 -1
26 -52 21 -41 -4 -54 -1 -64 13 -10 13 -21 16 -48 11 -20 -4 -42 -13 -50 -21
-14 -14 -32 -18 -143 -30 -53 -6 -53 -6 -52 22 0 25 1 26 9 8 8 -17 9 -16 9 9
l1 28 20 -23 c15 -19 19 -21 20 -7 0 9 -6 19 -12 21 -8 4 -7 6 3 6 10 1 20 13
24 29 4 15 10 21 12 15 3 -7 13 -13 24 -13 10 0 19 6 19 13 0 9 2 9 8 1 9 -15
82 -14 82 1 0 6 3 7 8 0 11 -16 32 -16 32 0 0 9 6 12 15 9 12 -5 15 2 15 30 0
20 -4 36 -9 36 -5 0 -8 11 -5 25 3 20 -2 29 -26 43 -26 16 -56 19 -228 21
-109 1 -200 0 -203 -3z m151 -28 c0 12 5 22 10 22 6 0 10 -20 10 -45 0 -49 -4
-53 -32 -28 -17 15 -18 15 -19 -3 0 -10 -5 -4 -11 15 -5 18 -7 40 -4 48 5 12
10 10 26 -8 l19 -24 1 23z m85 13 c3 -5 1 -13 -5 -16 -8 -5 -7 -11 1 -21 6 -7
9 -21 5 -29 -7 -20 -46 -20 -46 1 0 11 6 14 18 10 12 -4 10 0 -7 14 -13 12
-21 26 -17 35 6 16 41 20 51 6z m-509 -77 c-7 -17 -66 -19 -67 -1 -6 51 -4 67
8 67 8 0 13 -13 13 -36 0 -28 3 -35 18 -32 11 2 16 12 15 28 -1 14 1 32 5 40
8 19 16 -46 8 -66z m71 6 c13 0 23 -4 23 -10 0 -5 -16 -10 -35 -10 l-35 0 1
48 2 47 10 -37 c8 -30 15 -38 34 -38z m96 28 c19 -46 16 -58 -9 -37 -13 11
-18 11 -21 2 -3 -7 -11 -13 -18 -13 -11 0 -11 8 2 45 8 25 18 45 22 45 5 0 15
-19 24 -42z m117 29 c0 -5 7 -4 14 3 24 19 59 8 67 -20 3 -14 1 -31 -4 -37
-13 -18 -57 -16 -57 1 0 8 -4 18 -10 21 -6 4 -9 -3 -7 -16 1 -12 -3 -24 -10
-26 -7 -3 -13 9 -15 29 -2 21 -9 34 -20 36 -14 3 -16 -3 -11 -34 5 -29 3 -36
-8 -32 -8 2 -15 17 -17 31 -2 15 -9 27 -17 27 -7 0 -16 7 -19 15 -5 13 4 15
54 14 33 -1 60 -6 60 -12z m382 -19 c-9 -9 -12 -7 -12 12 0 19 3 21 12 12 9
-9 9 -15 0 -24z m-1104 -18 c11 -13 12 -12 10 5 -1 11 2 22 7 25 6 3 13 -14
16 -37 6 -50 -10 -58 -43 -20 l-20 22 5 -22 c4 -15 0 -23 -9 -23 -10 0 -14 13
-14 46 0 43 1 45 18 33 9 -8 23 -21 30 -29z m110 21 c3 -10 -2 -13 -22 -9 -22
4 -26 2 -26 -18 0 -28 6 -30 28 -8 11 11 17 13 20 5 7 -22 -7 -41 -32 -41 -26
0 -36 16 -36 59 0 23 4 27 32 26 18 0 33 -6 36 -14z m86 4 c3 -8 3 -28 0 -45
-6 -27 -8 -28 -23 -13 -15 15 -16 15 -19 0 -7 -36 -29 -10 -23 26 1 4 -3 17
-9 27 -10 18 -7 20 29 20 25 0 41 -5 45 -15z m79 -21 c17 -35 13 -71 -4 -43
-7 11 -12 12 -29 1 -24 -15 -26 -3 -9 47 14 40 21 39 42 -5z m782 26 c3 -5 1
-10 -4 -10 -6 0 -11 5 -11 10 0 6 2 10 4 10 3 0 8 -4 11 -10z m-1215 -15 c0
-13 -4 -14 -20 -5 -11 6 -20 13 -20 15 0 3 9 5 20 5 11 0 20 -7 20 -15z m96
-21 c7 -39 -4 -54 -42 -54 -16 0 -23 8 -27 30 -9 43 1 60 34 60 24 0 29 -5 35
-36z m-121 -32 c16 3 26 0 30 -11 3 -8 3 -12 0 -9 -4 4 -17 3 -30 -2 -26 -10
-36 4 -34 48 l2 27 4 -29 c4 -23 8 -27 28 -24z m975 -52 c0 -5 -7 -10 -16 -10
-8 0 -12 5 -9 10 3 6 10 10 16 10 5 0 9 -4 9 -10z m110 -25 c0 -6 -38 -45 -44
-45 -4 0 -1 10 6 23 7 12 11 25 10 29 -1 4 5 5 13 2 8 -4 15 -7 15 -9z m50 11
c0 -3 -4 -8 -10 -11 -5 -3 -10 -1 -10 4 0 6 5 11 10 11 6 0 10 -2 10 -4z m334
-101 c3 -9 0 -15 -10 -15 -13 0 -12 -5 5 -26 26 -33 28 -64 4 -63 -11 0 -13 3
-5 6 18 7 15 22 -14 57 l-27 31 7 -49 c7 -45 6 -49 -8 -37 -14 12 -16 11 -17
-5 -1 -21 -29 73 -28 96 0 8 6 2 14 -15 l13 -30 1 28 c1 16 5 26 10 22 5 -3
12 -1 16 5 9 15 32 12 39 -5z m-90 -95 c6 -20 5 -22 -4 -10 -9 11 -13 12 -17
3 -12 -30 -23 -9 -23 45 l1 57 18 -35 c10 -19 22 -46 25 -60z m-177 73 c-11
-3 -16 -11 -13 -21 10 -36 16 -97 8 -77 -5 11 -12 39 -16 63 -6 39 -5 42 16
41 18 -1 19 -2 5 -6z m-84 -61 c-22 -5 -26 4 -18 35 l8 28 12 -30 c11 -26 11
-30 -2 -33z m136 28 c5 0 6 -11 4 -24 -3 -13 0 -27 6 -30 6 -4 11 -2 11 4 0 6
5 8 10 5 17 -10 11 -25 -9 -25 -25 0 -29 7 -35 61 -3 24 -3 36 0 27 3 -10 9
-18 13 -18z m-276 -99 c-7 -10 -11 7 -17 64 l-5 60 12 -60 c7 -33 12 -62 10
-64z m32 109 c4 -6 -1 -7 -10 -3 -13 4 -16 1 -13 -13 2 -11 11 -18 20 -16 20
3 34 -58 16 -69 -13 -8 -43 10 -33 20 3 3 10 -1 15 -9 7 -11 10 -8 10 13 0 16
-5 27 -14 27 -14 0 -26 21 -26 46 0 16 26 19 35 4z m65 -15 c0 -14 -4 -25 -9
-25 -4 0 -6 11 -3 25 2 14 6 25 8 25 2 0 4 -11 4 -25z m-232 8 c-24 -6 -23
-39 2 -46 15 -4 20 -14 20 -36 0 -32 -21 -43 -36 -19 -5 8 -2 9 9 5 13 -5 17
-1 17 18 0 18 -5 25 -20 25 -14 0 -20 7 -20 23 0 28 8 37 29 36 13 -1 13 -2
-1 -6z m76 -63 c6 -42 6 -44 -9 -26 -15 19 -15 19 -16 -5 -1 -22 -2 -21 -9 6
-4 17 -8 44 -7 60 0 22 1 24 4 8 2 -13 9 -23 14 -23 5 0 7 12 4 28 -5 19 -4
23 3 12 5 -8 13 -35 16 -60z m-118 35 c13 -52 10 -89 -8 -93 -10 -2 -18 2 -18
8 0 6 5 8 10 5 6 -3 10 5 10 18 0 16 -7 26 -20 30 -28 7 -28 57 0 57 13 0 22
-9 26 -25z m372 -40 c0 -16 -2 -15 -8 5 -4 14 -8 34 -8 45 0 16 2 15 8 -5 4
-14 8 -34 8 -45z m-495 48 c-18 -7 -16 -43 2 -43 8 0 15 -4 15 -10 0 -5 4 -10
9 -10 6 0 8 17 6 38 -3 20 -2 28 1 17 10 -34 27 -44 22 -12 -3 15 -2 27 2 27
12 0 22 -102 11 -113 -12 -12 -31 0 -32 21 0 12 -3 11 -9 -5 -11 -26 -35 -30
-44 -8 -3 8 -1 15 4 15 6 0 10 -5 10 -11 0 -5 4 -8 9 -5 13 9 1 46 -15 46 -8
0 -14 6 -14 14 0 8 -3 21 -6 30 -5 12 0 16 17 15 13 0 18 -3 12 -6z m-126 -61
c15 -58 16 -72 3 -52 -9 13 -11 13 -20 0 -7 -11 -10 4 -10 49 0 72 8 73 27 3z
m-87 33 c0 34 9 10 18 -48 9 -57 2 -72 -18 -39 -11 16 -11 16 -6 0 3 -10 1
-20 -3 -22 -9 -6 -21 51 -21 99 1 29 1 29 15 11 14 -19 15 -19 15 -1z m44 -55
c5 -34 4 -51 -2 -45 -5 6 -12 34 -15 64 -4 30 -3 50 2 45 5 -5 12 -34 15 -64z
m-149 23 c-4 -21 -9 -46 -11 -55 -3 -10 2 -18 13 -20 15 -3 14 -5 -6 -10 -23
-7 -23 -6 -16 49 5 42 3 58 -7 64 -9 6 -7 9 10 9 21 0 22 -3 17 -37z m69 -58
c6 -27 5 -28 -8 -12 -14 18 -14 18 -19 0 -3 -10 -5 11 -5 47 -1 64 0 65 12 30
7 -19 16 -48 20 -65z m656 70 c0 -26 -23 -35 -36 -13 -5 8 -2 9 9 5 12 -5 17
-1 17 13 0 11 2 20 5 20 3 0 5 -11 5 -25z m47 -7 c-3 -7 -5 -2 -5 12 0 14 2
19 5 13 2 -7 2 -19 0 -25z m-936 9 c-6 -8 -9 -36 -6 -68 l5 -54 -13 60 c-11
52 -10 61 3 67 22 10 24 9 11 -5z m68 -96 c1 -11 -2 -11 -14 -1 -12 10 -15 9
-15 -4 0 -10 -3 -15 -7 -13 -5 3 -6 34 -4 69 l4 63 18 -50 c9 -27 18 -56 18
-64z m29 82 l12 -28 -6 30 c-3 16 -2 26 2 22 10 -9 22 -117 14 -117 -3 0 -11
12 -18 28 l-12 27 5 -27 c3 -16 1 -28 -5 -28 -5 0 -10 13 -10 29 0 16 -3 43
-6 60 -8 38 8 41 24 4z m-205 -13 c-3 -11 -7 -20 -9 -20 -2 0 -4 9 -4 20 0 11
4 20 9 20 5 0 7 -9 4 -20z m-163 -25 c0 -37 -15 -37 -16 0 0 19 3 32 8 29 4
-3 8 -16 8 -29z m55 25 c-4 -6 -11 -7 -17 -4 -6 4 -14 0 -19 -7 -7 -11 -9 -10
-9 4 0 12 8 17 26 17 14 0 23 -4 19 -10z m42 -22 c-3 -7 -5 -2 -5 12 0 14 2
19 5 13 2 -7 2 -19 0 -25z m43 22 c0 -5 -2 -10 -4 -10 -3 0 -8 5 -11 10 -3 6
-1 10 4 10 6 0 11 -4 11 -10z m-167 -67 c2 -29 0 -53 -4 -53 -5 0 -9 28 -8 63
1 71 5 67 12 -10z m1447 15 c12 -24 35 -60 52 -81 16 -21 28 -40 27 -41 -3 -3
-216 -13 -419 -20 -28 -1 -35 3 -34 16 1 10 -2 15 -7 12 -5 -3 -9 -1 -9 5 0 5
4 11 10 13 14 5 42 78 30 78 -6 0 -3 8 7 19 21 22 137 38 157 22 9 -8 18 -6
32 4 11 8 42 14 75 15 57 0 57 0 79 -42z m-1254 -10 c8 -16 13 -33 9 -36 -3
-3 -8 4 -12 16 -3 12 -9 22 -13 22 -5 0 -6 -9 -3 -20 3 -11 0 -20 -6 -20 -6 0
-11 17 -11 41 0 45 12 44 36 -3z m-136 12 c0 -5 -2 -10 -4 -10 -3 0 -8 5 -11
10 -3 6 -1 10 4 10 6 0 11 -4 11 -10z m89 -45 l0 -20 -9 20 c-5 11 -9 29 -9
40 l0 20 9 -20 c5 -11 9 -29 9 -40z m911 44 c0 -6 -5 -19 -11 -30 -7 -15 -7
-24 0 -33 14 -17 4 -46 -15 -46 -17 0 -19 -20 -1 -21 6 0 2 -4 -10 -9 -26 -10
-118 -16 -506 -31 -159 -6 -291 -9 -293 -6 -3 3 -1 14 5 25 8 15 7 23 -2 30
-15 13 -42 -1 -33 -17 4 -6 0 -11 -9 -11 -10 0 -13 -5 -9 -12 4 -6 -5 -3 -19
8 -15 10 -27 28 -27 39 0 18 10 23 68 33 37 7 112 17 167 22 55 5 168 16 250
25 144 16 391 41 428 44 9 0 17 -4 17 -10z m-943 -46 c-3 -10 -5 -2 -5 17 0
19 2 27 5 18 2 -10 2 -26 0 -35z m-42 -3 c7 0 15 -6 18 -13 4 -10 -2 -13 -19
-9 -19 3 -24 10 -23 31 1 17 3 20 6 9 2 -10 10 -18 18 -18z m1435 -120 c24
-24 25 -43 4 -64 -22 -23 -40 -20 -63 10 -40 51 13 100 59 54z m-279 -28 c-5
-25 -6 -25 -9 -4 -2 12 -8 22 -13 22 -5 0 -9 4 -9 9 0 5 8 7 18 4 15 -3 18
-11 13 -31z m-145 -3 c1 -22 1 -22 -3 -1 -2 12 -9 22 -15 22 -6 0 -8 -11 -6
-25 3 -14 1 -25 -3 -25 -11 0 -12 44 -2 54 13 12 28 0 29 -25z m31 -16 c-3
-10 -5 -2 -5 17 0 19 2 27 5 18 2 -10 2 -26 0 -35z m34 10 c-9 -16 -10 -14
-11 12 0 21 3 26 11 18 8 -8 8 -16 0 -30z m-391 17 c0 -5 -8 -10 -17 -10 -15
0 -16 -2 -3 -10 13 -9 13 -10 0 -11 -8 0 -4 -5 10 -9 24 -8 23 -8 -7 -9 -29
-1 -33 2 -33 23 0 22 10 30 43 35 4 0 7 -3 7 -9z m60 -1 c0 -5 -4 -7 -10 -4
-5 3 -10 1 -10 -4 0 -6 7 -11 15 -11 8 0 15 -7 15 -15 0 -9 -9 -15 -22 -14
-22 0 -22 1 -3 9 16 7 17 9 3 9 -20 1 -32 17 -23 31 8 13 35 13 35 -1z m73 4
c-7 -3 -13 -17 -14 -31 0 -26 -1 -26 -9 -4 -5 12 -14 22 -20 22 -5 0 -10 4
-10 8 0 5 15 9 33 9 17 1 26 -1 20 -4z m100 -5 c4 -10 8 -9 16 2 9 13 11 13
11 -2 0 -10 -6 -18 -14 -18 -8 0 -16 -6 -19 -12 -2 -7 -6 -1 -9 15 -5 27 6 38
15 15z m193 -25 c-11 -11 -17 4 -9 23 7 18 8 18 11 1 2 -10 1 -21 -2 -24z
m-629 -20 c-3 -10 -5 -2 -5 17 0 19 2 27 5 18 2 -10 2 -26 0 -35z m63 37 c0
-5 -7 -7 -15 -4 -10 4 -15 0 -15 -15 0 -23 16 -29 23 -8 2 6 8 9 12 5 11 -11
-4 -28 -26 -28 -14 0 -19 7 -19 30 0 23 4 30 20 30 11 0 20 -4 20 -10z m44 -2
c5 -10 7 -10 12 0 10 21 24 13 24 -13 0 -14 -4 -25 -10 -25 -5 0 -10 5 -10 10
0 6 -4 10 -10 10 -5 0 -10 -7 -10 -16 0 -8 -4 -12 -10 -9 -13 8 -13 55 -1 55
5 0 12 -6 15 -12z m-274 -9 c0 -5 -6 -7 -12 -4 -7 4 -4 -1 7 -10 17 -14 18
-17 5 -25 -20 -13 -43 -13 -35 0 4 6 12 8 18 4 7 -3 4 1 -7 10 -10 8 -15 19
-11 25 8 14 35 14 35 0z m103 -2 c3 -8 2 -19 -3 -26 -5 -9 -9 -4 -12 13 -5 27
6 36 15 13z m37 -14 c0 -22 -2 -25 -10 -13 -13 20 -13 40 0 40 6 0 10 -12 10
-27z m-376 8 c9 -13 -4 -42 -16 -35 -5 3 -5 11 2 19 8 10 7 14 -7 18 -16 4
-16 5 -1 6 9 0 19 -3 22 -8z m33 -28 c-3 -10 -5 -4 -5 12 0 17 2 24 5 18 2 -7
2 -21 0 -30z m55 30 c-18 -3 -23 -10 -19 -24 3 -10 1 -19 -4 -19 -5 0 -9 11
-9 25 0 21 4 25 28 24 24 -2 25 -2 4 -6z m78 -12 c13 -25 13 -31 0 -31 -5 0
-10 8 -10 17 0 15 -2 14 -16 -3 -14 -17 -15 -17 -10 -1 3 10 6 23 6 28 0 16
19 10 30 -10z m-316 -7 c10 -25 7 -29 -19 -30 -14 -1 -23 1 -21 5 1 3 6 14 9
24 8 21 23 22 31 1z m46 6 c0 -5 8 -11 18 -11 16 -1 16 -2 0 -6 -10 -2 -18 -9
-18 -14 0 -5 -4 -9 -9 -9 -5 0 -8 11 -7 25 1 23 16 37 16 15z m210 -20 c0 -5
-5 -10 -11 -10 -5 0 -7 5 -4 10 3 6 8 10 11 10 2 0 4 -4 4 -10z m920 -49 c0
-6 -4 -11 -10 -11 -5 0 -10 4 -10 9 0 5 -3 18 -7 28 -6 17 -6 17 10 1 9 -9 17
-21 17 -27z m120 1 c0 -13 -3 -12 -15 4 -13 17 -14 17 -15 2 0 -10 -7 -18 -16
-18 -14 0 -14 1 0 16 9 8 16 20 16 26 0 6 6 6 15 -2 8 -7 15 -20 15 -28z m32
6 c-9 -9 -12 -7 -12 12 0 19 3 21 12 12 9 -9 9 -15 0 -24z m38 18 c0 -8 8 -16
18 -18 12 -3 9 -6 -10 -10 -24 -4 -28 -2 -28 18 0 13 5 24 10 24 6 0 10 -6 10
-14z m60 -14 c0 -8 -1 -13 -3 -11 -1 2 -9 12 -16 22 -12 15 -12 17 3 11 9 -3
16 -13 16 -22z m-368 -7 c-5 -28 -27 -34 -36 -10 -3 9 0 15 9 15 8 0 15 5 15
10 0 6 4 10 9 10 4 0 6 -11 3 -25z m-418 -12 c-7 -39 -14 -42 -14 -5 0 18 4
32 9 32 5 0 7 -12 5 -27z m52 0 c1 -14 -3 -20 -12 -16 -18 7 -19 46 -1 41 6
-3 12 -14 13 -25z m28 5 c1 -7 5 -19 9 -25 5 -8 3 -13 -7 -13 -11 0 -16 10
-16 32 0 30 9 35 14 6z m51 14 c-13 -8 -13 -22 -1 -41 6 -9 5 -12 -5 -9 -8 2
-15 17 -17 31 -3 21 1 27 15 27 10 0 14 -3 8 -8z m51 -9 c18 -24 17 -33 -3
-32 -12 0 -13 2 -5 6 10 4 9 9 -4 24 -9 10 -14 19 -9 19 4 0 14 -8 21 -17z
m31 -5 c-3 -8 -6 -5 -6 6 -1 11 2 17 5 13 3 -3 4 -12 1 -19z m93 -22 c0 -6 -7
-1 -15 10 -8 10 -15 23 -15 28 0 6 7 1 15 -10 8 -10 15 -23 15 -28z m60 9 c0
-5 -5 -3 -10 5 -5 8 -10 20 -10 25 0 6 5 3 10 -5 5 -8 10 -19 10 -25z m220 20
c0 -8 -7 -15 -15 -15 -13 0 -14 3 -3 15 16 18 18 18 18 0z m-847 -2 c-7 -2
-13 -14 -13 -26 0 -18 2 -19 10 -7 8 13 10 12 10 -2 0 -22 -28 -24 -36 -3 -7
17 12 45 30 44 7 0 6 -2 -1 -6z m47 -20 c0 -20 -3 -24 -9 -14 -7 11 -10 10
-14 -5 -3 -13 -5 -10 -6 9 -1 17 3 26 9 22 6 -3 10 -1 10 4 0 6 2 11 5 11 3 0
5 -12 5 -27z m23 -6 c-3 -5 1 -13 8 -18 11 -7 10 -9 -3 -9 -14 0 -18 8 -18 33
0 23 3 28 9 17 6 -8 7 -18 4 -23z m48 -20 c-10 -9 -11 -8 -6 4 4 10 1 20 -4
24 -6 3 -8 11 -4 18 4 7 10 3 16 -11 7 -16 7 -26 -2 -35z m36 16 c-3 -10 -5
-4 -5 12 0 17 2 24 5 18 2 -7 2 -21 0 -30z m-325 20 c-10 -4 -10 -8 -1 -19 9
-12 9 -18 0 -27 -10 -9 -11 -8 -6 4 4 10 1 20 -4 24 -14 8 -5 25 12 24 8 0 8
-2 -1 -6z m133 -18 c0 -14 -3 -25 -7 -25 -5 0 -8 5 -8 10 0 6 -6 10 -13 10
-22 0 -15 26 7 28 16 1 21 -4 21 -23z m-261 -25 c10 -13 9 -13 -6 -1 -10 7
-18 21 -17 30 0 13 1 14 6 1 3 -8 11 -22 17 -30z m40 -2 c7 -5 5 -8 -6 -8 -10
0 -18 7 -18 15 0 8 -6 15 -12 15 -9 0 -8 4 2 10 11 7 16 5 19 -8 2 -9 8 -20
15 -24z m38 17 c5 18 5 18 4 1 -1 -11 -7 -21 -13 -24 -9 -2 -13 6 -12 25 l1
28 7 -25 c7 -23 8 -23 13 -5z m1254 -125 c0 -11 -4 -20 -8 -20 -4 0 -8 9 -8
20 0 11 4 20 8 20 4 0 8 -9 8 -20z m40 11 c-3 -5 1 -14 9 -21 20 -17 19 -30
-3 -30 -13 0 -17 7 -16 28 3 33 3 32 10 32 3 0 3 -4 0 -9z m-311 -36 c0 -16
-6 -30 -12 -32 -7 -3 -13 0 -13 7 0 6 5 8 10 5 6 -3 10 3 10 14 0 12 -4 21
-10 21 -5 0 -10 5 -10 11 0 6 6 9 13 7 6 -3 12 -17 12 -33z m95 24 c0 -5 -4
-7 -10 -4 -6 4 -11 -6 -11 -22 -1 -18 -3 -22 -6 -10 -3 10 -2 25 1 33 6 16 26
19 26 3z m37 -11 c-3 -8 -6 -5 -6 6 -1 11 2 17 5 13 3 -3 4 -12 1 -19z m43 7
c10 -12 10 -15 -4 -15 -9 0 -16 7 -16 15 0 8 2 15 4 15 2 0 9 -7 16 -15z m37
-7 c-3 -8 -6 -5 -6 6 -1 11 2 17 5 13 3 -3 4 -12 1 -19z m-348 -15 c0 -25 -1
-25 -8 -8 -5 11 -7 23 -4 28 8 14 13 7 12 -20z m-182 -24 c1 -19 0 -28 -3 -21
-3 6 -11 12 -18 12 -8 0 -12 10 -11 23 3 29 3 29 18 25 6 -3 13 -20 14 -39z
m51 3 c2 -18 -1 -32 -8 -32 -13 0 -32 48 -24 61 11 19 29 2 32 -29z m84 31
c-10 -4 -8 -8 5 -18 14 -10 15 -16 6 -25 -6 -7 -17 -9 -23 -5 -9 6 -9 10 1 16
10 6 11 9 2 9 -7 0 -13 7 -13 15 0 8 8 15 18 14 11 0 12 -2 4 -6z m-380 -33
c-8 -54 -41 -47 -42 8 0 19 5 23 23 20 17 -2 21 -8 19 -28z m54 -9 c3 -26 1
-32 -13 -29 -19 4 -28 30 -19 54 10 25 29 11 32 -25z m91 -7 c7 3 13 1 13 -4
0 -6 -9 -10 -20 -10 -11 0 -20 6 -20 14 0 8 -1 20 -3 28 -2 7 1 3 7 -10 6 -12
16 -20 23 -18z m43 32 c0 -8 3 -21 6 -30 4 -11 1 -16 -10 -16 -11 0 -16 9 -16
30 0 17 5 30 10 30 6 0 10 -6 10 -14z m-453 -16 c1 -11 -2 -22 -8 -25 -5 -3
-6 1 -3 9 4 10 1 16 -7 16 -11 0 -11 3 1 10 8 5 15 10 15 10 1 0 1 -9 2 -20z
m33 9 c0 -6 7 -9 15 -5 12 4 15 -2 14 -27 0 -18 -3 -26 -6 -19 -2 6 -8 10 -12
8 -4 -3 -12 8 -18 25 -6 16 -7 29 -2 29 5 0 9 -5 9 -11z m79 -27 l-1 -27 -8
25 c-8 25 -8 25 -10 -5 -2 -26 -3 -27 -7 -7 -3 13 -2 30 1 38 9 23 26 6 25
-24z m47 27 c10 -17 -13 -36 -27 -22 -12 12 -4 33 11 33 5 0 12 -5 16 -11z
m49 -41 c5 -4 1 -8 -10 -8 -16 0 -20 7 -22 33 -1 31 -1 32 10 7 6 -14 16 -28
22 -32z m765 42 c0 -5 -2 -10 -4 -10 -3 0 -8 5 -11 10 -3 6 -1 10 4 10 6 0 11
-4 11 -10z m140 -2 c0 -4 -7 -8 -15 -8 -8 0 -15 4 -15 8 0 5 7 9 15 9 8 0 15
-4 15 -9z m-245 -8 c3 -5 1 -10 -4 -10 -6 0 -11 5 -11 10 0 6 2 10 4 10 3 0 8
-4 11 -10z m-1138 -32 c-3 -7 -5 -2 -5 12 0 14 2 19 5 13 2 -7 2 -19 0 -25z
m1426 -40 c6 -4 8 -10 4 -15 -12 -11 -27 18 -25 47 l1 25 4 -25 c3 -14 10 -28
16 -32z m50 13 c3 -14 1 -18 -9 -14 -8 3 -14 14 -14 25 0 23 16 16 23 -11z
m-518 -7 c1 -5 0 -6 -3 -1 -2 4 -8 5 -13 1 -5 -3 -9 0 -9 6 0 14 23 8 25 -6z
m37 9 c-10 -4 -10 -8 -1 -19 9 -11 8 -14 -5 -14 -9 0 -16 8 -16 20 0 13 6 20
18 19 11 0 12 -2 4 -6z m60 -23 c4 -26 2 -28 -11 -18 -9 7 -18 13 -20 15 -2 1
20 31 25 33 1 0 4 -13 6 -30z m318 15 c0 -8 -2 -15 -4 -15 -2 0 -6 7 -10 15
-3 8 -1 15 4 15 6 0 10 -7 10 -15z m17 -7 c-3 -8 -6 -5 -6 6 -1 11 2 17 5 13
3 -3 4 -12 1 -19z m-1156 -13 c5 4 10 -13 11 -37 l1 -43 4 38 c3 27 9 37 21
36 11 0 12 -3 5 -6 -20 -7 -16 -43 5 -43 13 0 11 -4 -8 -14 -22 -11 -27 -11
-42 8 -15 18 -18 18 -18 4 0 -9 -4 -19 -8 -22 -9 -6 -8 27 3 74 6 22 10 29 13
17 2 -9 8 -15 13 -12z m482 18 c-15 -6 -17 -39 -3 -48 6 -3 11 4 11 17 1 18 2
19 6 4 8 -29 -15 -45 -33 -22 -13 18 -14 18 -14 2 0 -15 -2 -16 -15 -2 -8 8
-15 23 -15 33 0 15 2 16 10 3 9 -13 10 -13 10 0 0 12 2 12 9 2 7 -11 9 -11 14
2 4 9 12 16 19 15 10 0 10 -2 1 -6z m103 -31 c1 -20 0 -28 -3 -18 -4 15 -7 16
-14 5 -7 -11 -9 -11 -9 3 0 9 -3 23 -6 32 -4 11 0 16 12 16 15 0 19 -8 20 -38z
m30 -2 c5 -13 6 -13 14 0 8 13 10 12 10 -2 0 -11 -8 -18 -20 -18 -16 0 -20 6
-19 33 0 17 3 25 6 17 2 -8 7 -22 9 -30z m66 20 c12 -26 9 -47 -4 -25 -11 19
-11 19 -19 0 -6 -16 -8 -13 -8 13 -1 33 18 41 31 12z m-286 -27 c4 -23 1 -30
-11 -30 -12 0 -15 6 -11 21 3 12 6 27 6 35 0 23 11 5 16 -26z m654 29 c0 -5
-7 -9 -15 -9 -8 0 -12 4 -9 9 3 4 9 8 15 8 5 0 9 -4 9 -8z m-839 -42 c5 -12 2
-16 -12 -16 -21 0 -21 1 -12 36 4 16 8 20 11 10 3 -8 8 -22 13 -30z m517 17
c13 5 14 3 5 -7 -13 -14 -33 -5 -32 13 0 9 2 9 5 0 3 -7 13 -9 22 -6z m179 7
c-3 -3 -12 -4 -19 -1 -8 3 -5 6 6 6 11 1 17 -2 13 -5z m-780 -41 c-3 -10 -5
-4 -5 12 0 17 2 24 5 18 2 -7 2 -21 0 -30z m-30 21 c-3 -3 -12 -4 -19 -1 -8 3
-5 6 6 6 11 1 17 -2 13 -5z m0 -36 c-3 -8 -6 -5 -6 6 -1 11 2 17 5 13 3 -3 4
-12 1 -19z m78 2 c3 -5 1 -10 -4 -10 -6 0 -11 5 -11 10 0 6 2 10 4 10 3 0 8
-4 11 -10z"/>
<path d="M1114 1897 c-8 -23 3 -50 19 -44 13 4 11 36 -4 51 -5 6 -11 3 -15 -7z"/>
<path d="M515 1880 c4 -6 11 -8 16 -5 14 9 11 15 -7 15 -8 0 -12 -5 -9 -10z"/>
<path d="M244 1858 c2 -31 36 -33 36 -2 0 17 -6 24 -19 24 -12 0 -18 -7 -17
-22z"/>
<path d="M947 1593 c-3 -5 -2 -15 2 -22 5 -7 11 -9 14 -4 3 5 2 15 -2 22 -5 7
-11 9 -14 4z"/>
<path d="M900 1521 c0 -12 5 -21 10 -21 6 0 10 6 10 14 0 8 -4 18 -10 21 -5 3
-10 -3 -10 -14z"/>
<path d="M870 980 c0 -5 5 -10 10 -10 6 0 10 5 10 10 0 6 -4 10 -10 10 -5 0
-10 -4 -10 -10z"/>
<path d="M620 956 c0 -8 5 -18 10 -21 6 -3 10 3 10 14 0 12 -4 21 -10 21 -5 0
-10 -6 -10 -14z"/>
<path d="M520 960 c0 -5 5 -10 10 -10 6 0 10 5 10 10 0 6 -4 10 -10 10 -5 0
-10 -4 -10 -10z"/>
<path d="M865 1790 c3 -5 8 -10 11 -10 2 0 4 5 4 10 0 6 -5 10 -11 10 -5 0 -7
-4 -4 -10z"/>
<path d="M802 1772 c-24 -8 -11 -17 28 -19 23 -2 39 1 36 6 -7 10 -47 19 -64
13z"/>
<path d="M150 1650 c0 -19 3 -21 12 -12 9 9 9 15 0 24 -9 9 -12 7 -12 -12z"/>
<path d="M150 1319 c0 -11 5 -17 10 -14 6 3 10 13 10 21 0 8 -4 14 -10 14 -5
0 -10 -9 -10 -21z"/>
<path d="M75 1100 c-3 -5 -1 -10 4 -10 6 0 11 5 11 10 0 6 -2 10 -4 10 -3 0
-8 -4 -11 -10z"/>
<path d="M105 1099 c-4 -6 -5 -12 -2 -15 2 -3 7 2 10 11 7 17 1 20 -8 4z"/>
<path d="M170 1010 c-13 -8 -12 -10 3 -10 9 0 17 5 17 10 0 12 -1 12 -20 0z"/>
<path d="M315 980 c3 -5 8 -10 11 -10 2 0 4 5 4 10 0 6 -5 10 -11 10 -5 0 -7
-4 -4 -10z"/>
<path d="M270 960 c-1 -3 -3 -16 -6 -30 -3 -21 -2 -22 7 -7 6 10 8 23 5 30 -2
7 -5 10 -6 7z"/>
<path d="M148 744 c-2 -18 0 -30 4 -28 4 3 8 -5 8 -18 0 -13 -1 -63 -1 -113 0
-49 -2 -105 -6 -124 -5 -27 -3 -32 8 -26 8 4 2 -5 -13 -22 -16 -16 -28 -36
-28 -44 1 -11 4 -10 14 4 20 26 29 20 22 -14 -3 -18 -1 -49 5 -70 10 -32 9
-40 -5 -54 -9 -9 -16 -25 -16 -36 0 -16 -8 -19 -47 -20 -75 -2 -78 -3 -77 -21
1 -10 -2 -18 -7 -18 -16 0 -10 -78 7 -88 19 -11 82 8 95 29 9 14 10 12 13 -41
1 -9 17 -18 43 -24 35 -7 46 -5 72 13 17 12 31 29 31 37 0 8 4 14 9 14 4 0 7
10 6 22 -1 13 -3 33 -4 44 -1 16 -7 21 -26 19 -20 -3 -24 1 -23 18 0 12 -2 45
-5 72 -3 28 -4 41 0 30 7 -24 33 -63 33 -50 0 6 6 -1 13 -14 21 -43 37 -37 37
13 0 24 -4 48 -10 51 -6 4 -10 -8 -10 -29 0 -36 0 -36 -19 -17 -17 17 -18 24
-8 45 7 14 17 24 24 21 24 -8 22 13 -2 39 -14 15 -32 41 -41 59 -9 18 -22 35
-28 39 -6 4 -12 12 -12 18 -1 5 -2 11 -3 13 -6 7 -4 115 2 130 4 12 3 16 -4
11 -7 -4 -10 -1 -7 7 3 8 1 25 -4 39 -12 33 -2 74 17 66 9 -3 15 1 15 9 0 9 6
12 15 9 8 -4 15 -1 15 5 0 6 -3 11 -7 11 -5 1 -27 4 -50 9 -41 8 -41 8 -45
-25z m66 -441 c-16 -16 -16 -15 -10 31 11 74 21 87 24 33 2 -34 -2 -52 -14
-64z"/>
<path d="M1446 757 c3 -10 9 -15 12 -12 3 3 0 11 -7 18 -10 9 -11 8 -5 -6z"/>
<path d="M1455 679 c6 -33 15 -36 15 -6 0 15 -4 27 -9 27 -6 0 -8 -10 -6 -21z"/>
<path d="M1435 620 c-10 -11 -15 -23 -12 -27 4 -3 7 -2 7 4 0 6 7 13 15 17 11
4 14 -1 13 -19 -1 -13 -5 -22 -9 -19 -4 2 -9 -3 -13 -11 -3 -8 -1 -17 4 -20 6
-4 10 -1 10 4 0 26 17 7 27 -29 5 -22 7 -40 2 -40 -4 0 -8 -22 -7 -50 0 -36 4
-50 14 -50 10 0 12 9 7 33 -4 22 -2 29 5 22 6 -5 12 -21 14 -35 2 -14 4 27 5
90 1 109 -7 147 -29 134 -5 -3 -15 -1 -22 5 -10 8 -18 6 -31 -9z"/>
<path d="M757 456 c-15 -12 -15 -15 -2 -26 8 -7 15 -18 15 -25 0 -13 29 -29
37 -21 8 8 -8 27 -18 21 -5 -4 -9 -2 -9 4 0 5 6 12 13 14 8 4 9 8 1 14 -6 4
-13 13 -15 20 -3 9 -8 8 -22 -1z"/>
<path d="M1923 437 c2 -27 50 -87 69 -87 8 0 20 -6 27 -12 7 -7 -1 16 -19 51
-29 58 -32 62 -45 45 -14 -18 -14 -18 -15 4 0 12 -4 22 -9 22 -6 0 -9 -10 -8
-23z"/>
<path d="M1900 440 c0 -5 5 -10 11 -10 5 0 7 5 4 10 -3 6 -8 10 -11 10 -2 0
-4 -4 -4 -10z"/>
<path d="M1297 403 c-4 -3 -7 -18 -6 -32 1 -26 1 -25 10 3 9 31 7 41 -4 29z"/>
<path d="M1854 389 c-18 -20 -18 -21 6 -40 14 -10 36 -19 50 -19 14 0 36 -3
50 -7 23 -5 23 -4 -9 26 -19 17 -45 31 -58 31 -13 0 -23 5 -23 11 0 5 5 7 10
4 6 -3 10 -1 10 4 0 17 -15 13 -36 -10z"/>
<path d="M2412 376 c7 -8 15 -12 17 -11 5 6 -10 25 -20 25 -5 0 -4 -6 3 -14z"/>
<path d="M1180 349 c0 -5 5 -7 10 -4 6 3 10 8 10 11 0 2 -4 4 -10 4 -5 0 -10
-5 -10 -11z"/>
<path d="M1226 340 c4 -14 6 -40 6 -58 -1 -21 2 -30 9 -26 12 7 4 69 -12 94
-7 11 -8 8 -3 -10z"/>
<path d="M1259 354 c-3 -5 -2 -25 1 -44 5 -30 7 -32 13 -14 8 21 -6 75 -14 58z"/>
<path d="M1521 334 c0 -11 3 -14 6 -6 3 7 2 16 -1 19 -3 4 -6 -2 -5 -13z"/>
<path d="M1160 333 c0 -5 7 -17 15 -27 12 -16 18 -17 28 -7 10 10 8 15 -7 27
-22 15 -36 18 -36 7z"/>
<path d="M2066 321 c-7 -10 52 -24 65 -15 5 3 7 10 4 15 -8 11 -62 12 -69 0z"/>
<path d="M2460 300 c-6 -12 -24 -23 -41 -27 -16 -3 -29 -12 -29 -19 0 -11 5
-11 27 -1 21 9 27 9 31 -1 3 -11 84 -52 103 -52 5 0 9 24 9 53 0 51 -1 53 -27
52 -25 0 -28 -4 -31 -38 -3 -32 -5 -35 -17 -23 -8 8 -12 27 -10 45 5 36 0 39
-15 11z"/>
<path d="M345 286 c5 -26 4 -28 -9 -17 -14 12 -16 9 -16 -21 0 -45 8 -52 30
-25 21 25 25 21 39 -53 8 -43 9 -44 10 -10 1 19 -3 50 -9 68 -8 29 -7 32 5 22
8 -7 15 -20 15 -29 1 -14 2 -14 15 2 13 18 14 17 18 -5 3 -18 5 -17 6 8 1 28
-3 32 -41 43 -23 7 -48 21 -56 30 -12 14 -13 12 -7 -13z"/>
<path d="M1105 283 c-3 -15 -8 -36 -10 -45 -2 -10 2 -18 8 -18 22 0 37 16 47
48 5 21 5 30 -1 26 -5 -3 -16 0 -24 6 -12 10 -15 6 -20 -17z"/>
<path d="M130 260 c0 -5 5 -10 10 -10 6 0 10 5 10 10 0 6 -4 10 -10 10 -5 0
-10 -4 -10 -10z"/>
<path d="M1185 260 c3 -5 8 -10 11 -10 2 0 4 5 4 10 0 6 -5 10 -11 10 -5 0 -7
-4 -4 -10z"/>
<path d="M949 241 c-26 -20 -29 -21 -59 -21 -11 0 -20 -4 -20 -10 0 -16 56
-12 70 5 15 18 28 19 27 3 -1 -31 4 -48 13 -48 6 0 10 7 10 16 0 8 5 12 10 9
6 -3 10 -1 10 4 0 6 -6 11 -14 11 -9 0 -12 8 -8 25 5 30 -7 32 -39 6z"/>
<path d="M1023 237 c9 -8 17 -19 17 -26 0 -6 5 -11 11 -11 17 0 5 22 -22 38
-21 12 -22 12 -6 -1z"/>
<path d="M514 194 c-3 -19 -4 -44 -1 -55 3 -12 2 -32 -3 -45 -6 -15 -6 -24 0
-24 9 0 15 17 23 70 4 20 5 19 6 -7 1 -32 21 -48 21 -17 0 8 5 12 11 9 7 -5 5
-13 -5 -24 -17 -19 -12 -31 13 -31 12 0 16 11 16 45 0 25 -4 45 -8 45 -5 0 -5
-6 -1 -12 4 -9 4 -10 -3 -3 -5 6 -15 23 -21 38 l-12 28 35 -7 c24 -4 35 -2 35
5 0 7 -3 10 -8 7 -4 -2 -26 -1 -49 4 -42 7 -43 7 -49 -26z"/>
<path d="M470 195 c-10 -12 -10 -15 4 -15 9 0 16 7 16 15 0 8 -2 15 -4 15 -2
0 -9 -7 -16 -15z"/>
<path d="M782 162 c-18 -19 -31 -36 -29 -39 3 -2 21 -6 40 -10 27 -4 42 0 63
16 15 11 23 21 19 21 -5 0 -17 -7 -27 -17 -23 -21 -35 -11 -13 11 9 9 12 16 6
16 -5 0 -13 -4 -16 -10 -3 -5 -11 -10 -16 -10 -6 0 -7 6 -2 13 7 11 16 48 10
46 -1 -1 -17 -17 -35 -37z"/>
<path d="M441 174 c0 -11 3 -14 6 -6 3 7 2 16 -1 19 -3 4 -6 -2 -5 -13z"/>
<path d="M870 169 c0 -5 5 -7 10 -4 6 3 10 8 10 11 0 2 -4 4 -10 4 -5 0 -10
-5 -10 -11z"/>
<path d="M1924 85 c-5 -20 -9 -23 -19 -15 -11 9 -12 7 -8 -10 3 -11 2 -20 -3
-19 -20 3 -24 -2 -14 -21 23 -42 54 -19 64 48 7 46 -9 60 -20 17z"/>
<path d="M1847 94 c-8 -9 1 -24 14 -24 6 0 8 4 5 9 -4 5 0 12 6 14 9 4 8 6 -3
6 -9 1 -19 -2 -22 -5z"/>
<path d="M1513 24 c-27 -12 -11 -25 27 -22 23 1 39 6 37 12 -4 12 -45 18 -64
10z"/>
</g>
</svg>
